<svg width="2049" height="2581" viewBox="0 0 2049 2581" fill="none" xmlns="http://www.w3.org/2000/svg">
<g clip-path="url(#clip0_2057_4)">
<mask id="path-1-outside-1_2057_4" maskUnits="userSpaceOnUse" x="1397" y="196" width="507" height="747" fill="black">
<rect fill="white" x="1397" y="196" width="507" height="747"/>
<path d="M1646 936C1610 936 1575.67 928.833 1543 914.5C1510.33 899.833 1481.83 879.333 1457.5 853C1433.5 826.667 1416.33 795.667 1406 760L1538 725C1545 751.333 1558.67 771.833 1579 786.5C1599.67 800.833 1622 808 1646 808C1666.67 808 1685.5 803 1702.5 793C1719.83 783 1733.5 769.5 1743.5 752.5C1753.83 735.5 1759 716.667 1759 696C1759 665 1748.33 638.5 1727 616.5C1706 594.167 1679 583 1646 583C1636 583 1626.33 584.5 1617 587.5C1607.67 590.167 1598.67 594 1590 599L1529 492L1758 302L1768 331H1434V203H1884V331L1706 503L1705 465C1746.33 471.333 1781.17 485.833 1809.5 508.5C1838.17 530.833 1859.83 558.5 1874.5 591.5C1889.5 624.167 1897 659 1897 696C1897 741.333 1885.5 782.167 1862.5 818.5C1839.5 854.5 1809 883.167 1771 904.5C1733 925.5 1691.33 936 1646 936Z"/>
</mask>
<path d="M1543 914.5L1540.13 920.886L1540.16 920.898L1540.19 920.91L1543 914.5ZM1457.5 853L1452.33 857.715L1452.34 857.733L1452.36 857.751L1457.5 853ZM1406 760L1404.21 753.234L1397.28 755.069L1399.28 761.948L1406 760ZM1538 725L1544.77 723.202L1542.97 716.441L1536.21 718.234L1538 725ZM1579 786.5L1574.9 792.177L1574.96 792.215L1575.01 792.252L1579 786.5ZM1702.5 793L1699 786.937L1698.98 786.951L1698.95 786.966L1702.5 793ZM1743.5 752.5L1737.52 748.864L1737.49 748.907L1737.47 748.951L1743.5 752.5ZM1727 616.5L1721.9 621.295L1721.94 621.334L1721.97 621.373L1727 616.5ZM1617 587.5L1618.92 594.231L1619.03 594.199L1619.14 594.164L1617 587.5ZM1590 599L1583.92 602.467L1587.4 608.579L1593.5 605.063L1590 599ZM1529 492L1524.53 486.613L1520.01 490.364L1522.92 495.467L1529 492ZM1758 302L1764.62 299.718L1761.32 290.151L1753.53 296.613L1758 302ZM1768 331V338H1777.82L1774.62 328.718L1768 331ZM1434 331H1427V338H1434V331ZM1434 203V196H1427V203H1434ZM1884 203H1891V196H1884V203ZM1884 331L1888.86 336.034L1891 333.97V331H1884ZM1706 503L1699 503.184L1699.42 519.091L1710.86 508.034L1706 503ZM1705 465L1706.06 458.081L1697.78 456.812L1698 465.184L1705 465ZM1809.5 508.5L1805.13 513.966L1805.16 513.994L1805.2 514.022L1809.5 508.5ZM1874.5 591.5L1868.1 594.343L1868.12 594.382L1868.14 594.421L1874.5 591.5ZM1862.5 818.5L1868.4 822.269L1868.41 822.256L1868.41 822.244L1862.5 818.5ZM1771 904.5L1774.39 910.627L1774.41 910.615L1774.43 910.604L1771 904.5ZM1646 936V929C1610.96 929 1577.58 922.031 1545.81 908.09L1543 914.5L1540.19 920.91C1573.75 935.636 1609.04 943 1646 943V936ZM1543 914.5L1545.87 908.114C1514.06 893.834 1486.34 873.891 1462.64 848.249L1457.5 853L1452.36 857.751C1477.33 884.776 1506.6 905.832 1540.13 920.886L1543 914.5ZM1457.5 853L1462.67 848.285C1439.43 822.777 1422.77 792.735 1412.72 758.052L1406 760L1399.28 761.948C1409.89 798.599 1427.57 830.557 1452.33 857.715L1457.5 853ZM1406 760L1407.79 766.766L1539.79 731.766L1538 725L1536.21 718.234L1404.21 753.234L1406 760ZM1538 725L1531.23 726.798C1538.61 754.549 1553.14 776.48 1574.9 792.177L1579 786.5L1583.1 780.823C1564.19 767.186 1551.39 748.118 1544.77 723.202L1538 725ZM1579 786.5L1575.01 792.252C1596.79 807.357 1620.5 815 1646 815V808V801C1623.5 801 1602.54 794.31 1582.99 780.748L1579 786.5ZM1646 808V815C1667.85 815 1687.92 809.697 1706.05 799.034L1702.5 793L1698.95 786.966C1683.08 796.303 1665.48 801 1646 801V808ZM1702.5 793L1706 799.063C1724.36 788.468 1738.91 774.108 1749.53 756.049L1743.5 752.5L1737.47 748.951C1728.09 764.892 1715.3 777.532 1699 786.937L1702.5 793ZM1743.5 752.5L1749.48 756.136C1760.51 737.996 1766 717.897 1766 696H1759H1752C1752 715.436 1747.16 733.004 1737.52 748.864L1743.5 752.5ZM1759 696H1766C1766 663.204 1754.64 634.95 1732.03 611.627L1727 616.5L1721.97 621.373C1742.03 642.05 1752 666.796 1752 696H1759ZM1727 616.5L1732.1 611.705C1709.67 587.849 1680.77 576 1646 576V583V590C1677.23 590 1702.33 600.485 1721.9 621.295L1727 616.5ZM1646 583V576C1635.29 576 1624.9 577.609 1614.86 580.836L1617 587.5L1619.14 594.164C1627.77 591.391 1636.71 590 1646 590V583ZM1617 587.5L1615.08 580.769C1605.18 583.598 1595.65 587.66 1586.5 592.937L1590 599L1593.5 605.063C1601.68 600.34 1610.16 596.735 1618.92 594.231L1617 587.5ZM1590 599L1596.08 595.533L1535.08 488.533L1529 492L1522.92 495.467L1583.92 602.467L1590 599ZM1529 492L1533.47 497.387L1762.47 307.387L1758 302L1753.53 296.613L1524.53 486.613L1529 492ZM1758 302L1751.38 304.282L1761.38 333.282L1768 331L1774.62 328.718L1764.62 299.718L1758 302ZM1768 331V324H1434V331V338H1768V331ZM1434 331H1441V203H1434H1427V331H1434ZM1434 203V210H1884V203V196H1434V203ZM1884 203H1877V331H1884H1891V203H1884ZM1884 331L1879.14 325.966L1701.14 497.966L1706 503L1710.86 508.034L1888.86 336.034L1884 331ZM1706 503L1713 502.816L1712 464.816L1705 465L1698 465.184L1699 503.184L1706 503ZM1705 465L1703.94 471.919C1744.25 478.095 1777.89 492.176 1805.13 513.966L1809.5 508.5L1813.87 503.034C1784.44 479.491 1748.42 464.571 1706.06 458.081L1705 465ZM1809.5 508.5L1805.2 514.022C1832.96 535.653 1853.91 562.401 1868.1 594.343L1874.5 591.5L1880.9 588.657C1865.76 554.599 1843.37 526.014 1813.8 502.978L1809.5 508.5ZM1874.5 591.5L1868.14 594.421C1882.71 626.144 1890 659.978 1890 696H1897H1904C1904 658.022 1896.29 622.189 1880.86 588.579L1874.5 591.5ZM1897 696H1890C1890 740.083 1878.84 779.605 1856.59 814.756L1862.5 818.5L1868.41 822.244C1892.16 784.729 1904 742.584 1904 696H1897ZM1862.5 818.5L1856.6 814.731C1834.23 849.741 1804.59 877.614 1767.57 898.396L1771 904.5L1774.43 910.604C1813.41 888.719 1844.77 859.259 1868.4 822.269L1862.5 818.5ZM1771 904.5L1767.61 898.373C1730.7 918.775 1690.2 929 1646 929V936V943C1692.46 943 1735.3 932.225 1774.39 910.627L1771 904.5Z" fill="#006811" mask="url(#path-1-outside-1_2057_4)"/>
<mask id="path-3-outside-2_2057_4" maskUnits="userSpaceOnUse" x="150" y="159" width="288" height="734" fill="black">
<rect fill="white" x="150" y="159" width="288" height="734"/>
<path d="M292 886V314L157 397V247L292 166H431V886H292Z"/>
</mask>
<path d="M292 886H285V893H292V886ZM292 314H299V301.479L288.334 308.037L292 314ZM157 397H150V409.521L160.666 402.963L157 397ZM157 247L153.399 240.997L150 243.037V247H157ZM292 166V159H290.061L288.399 159.997L292 166ZM431 166H438V159H431V166ZM431 886V893H438V886H431ZM292 886H299V314H292H285V886H292ZM292 314L288.334 308.037L153.334 391.037L157 397L160.666 402.963L295.666 319.963L292 314ZM157 397H164V247H157H150V397H157ZM157 247L160.601 253.002L295.601 172.002L292 166L288.399 159.997L153.399 240.997L157 247ZM292 166V173H431V166V159H292V166ZM431 166H424V886H431H438V166H431ZM431 886V879H292V886V893H431V886Z" fill="#006811" mask="url(#path-3-outside-2_2057_4)"/>
<mask id="path-5-outside-3_2057_4" maskUnits="userSpaceOnUse" x="121" y="1031" width="529" height="734" fill="black">
<rect fill="white" x="121" y="1031" width="529" height="734"/>
<path d="M441 1758V1646H128V1519L355 1038H511L284 1519H441V1339H579V1519H643V1646H579V1758H441Z"/>
</mask>
<path d="M441 1758H434V1765H441V1758ZM441 1646H448V1639H441V1646ZM128 1646H121V1653H128V1646ZM128 1519L121.67 1516.01L121 1517.43V1519H128ZM355 1038V1031H350.563L348.67 1035.01L355 1038ZM511 1038L517.33 1040.99L522.044 1031H511V1038ZM284 1519L277.67 1516.01L272.956 1526H284V1519ZM441 1519V1526H448V1519H441ZM441 1339V1332H434V1339H441ZM579 1339H586V1332H579V1339ZM579 1519H572V1526H579V1519ZM643 1519H650V1512H643V1519ZM643 1646V1653H650V1646H643ZM579 1646V1639H572V1646H579ZM579 1758V1765H586V1758H579ZM441 1758H448V1646H441H434V1758H441ZM441 1646V1639H128V1646V1653H441V1646ZM128 1646H135V1519H128H121V1646H128ZM128 1519L134.33 1521.99L361.33 1040.99L355 1038L348.67 1035.01L121.67 1516.01L128 1519ZM355 1038V1045H511V1038V1031H355V1038ZM511 1038L504.67 1035.01L277.67 1516.01L284 1519L290.33 1521.99L517.33 1040.99L511 1038ZM284 1519V1526H441V1519V1512H284V1519ZM441 1519H448V1339H441H434V1519H441ZM441 1339V1346H579V1339V1332H441V1339ZM579 1339H572V1519H579H586V1339H579ZM579 1519V1526H643V1519V1512H579V1519ZM643 1519H636V1646H643H650V1519H643ZM643 1646V1639H579V1646V1653H643V1646ZM579 1646H572V1758H579H586V1646H579ZM579 1758V1751H441V1758V1765H579V1758Z" fill="#006811" mask="url(#path-5-outside-3_2057_4)"/>
<mask id="path-7-outside-4_2057_4" maskUnits="userSpaceOnUse" x="758" y="1560" width="505" height="749" fill="black">
<rect fill="white" x="758" y="1560" width="505" height="749"/>
<path d="M1001 2302C964.667 2302 930.5 2294.5 898.5 2279.5C866.833 2264.5 839.5 2243.67 816.5 2217C793.5 2190.33 777 2159.33 767 2124L898 2089C902.333 2106 910 2120.67 921 2133C932.333 2145.33 945.333 2155 960 2162C975 2168.67 990.333 2172 1006 2172C1026.67 2172 1045.5 2167 1062.5 2157C1079.83 2147 1093.5 2133.5 1103.5 2116.5C1113.83 2099.5 1119 2080.67 1119 2060C1119 2039.33 1113.83 2020.5 1103.5 2003.5C1093.5 1986.5 1079.83 1973 1062.5 1963C1045.5 1953 1026.67 1948 1006 1948C980.667 1948 960 1952.33 944 1961C928 1969.33 916 1977.33 908 1985L793 1950L815 1567H1208V1694H890L938 1649L923 1896L900 1868C918 1853.33 938.5 1842.67 961.5 1836C984.5 1829.33 1006 1826 1026 1826C1071.33 1826 1111.17 1836.17 1145.5 1856.5C1180.17 1876.5 1207.17 1904.17 1226.5 1939.5C1246.17 1974.5 1256 2014.67 1256 2060C1256 2105.33 1244.17 2146.33 1220.5 2183C1196.83 2219.33 1165.67 2248.33 1127 2270C1088.33 2291.33 1046.33 2302 1001 2302Z"/>
</mask>
<path d="M898.5 2279.5L895.503 2285.83L895.516 2285.83L895.529 2285.84L898.5 2279.5ZM816.5 2217L821.801 2212.43L816.5 2217ZM767 2124L765.193 2117.24L758.33 2119.07L760.265 2125.91L767 2124ZM898 2089L904.783 2087.27L903.034 2080.41L896.193 2082.24L898 2089ZM921 2133L915.776 2137.66L915.811 2137.7L915.846 2137.74L921 2133ZM960 2162L956.985 2168.32L957.07 2168.36L957.157 2168.4L960 2162ZM1062.5 2157L1059 2150.94L1058.98 2150.95L1058.95 2150.97L1062.5 2157ZM1103.5 2116.5L1097.52 2112.86L1097.49 2112.91L1097.47 2112.95L1103.5 2116.5ZM1103.5 2003.5L1097.47 2007.05L1097.49 2007.09L1097.52 2007.14L1103.5 2003.5ZM1062.5 1963L1058.95 1969.03L1058.98 1969.05L1059 1969.06L1062.5 1963ZM944 1961L947.234 1967.21L947.284 1967.18L947.334 1967.16L944 1961ZM908 1985L905.962 1991.7L909.884 1992.89L912.843 1990.05L908 1985ZM793 1950L786.012 1949.6L785.696 1955.09L790.962 1956.7L793 1950ZM815 1567V1560H808.391L808.012 1566.6L815 1567ZM1208 1567H1215V1560H1208V1567ZM1208 1694V1701H1215V1694H1208ZM890 1694L885.212 1688.89L872.299 1701H890V1694ZM938 1649L944.987 1649.42L946.054 1631.85L933.212 1643.89L938 1649ZM923 1896L917.591 1900.44L928.907 1914.22L929.987 1896.42L923 1896ZM900 1868L895.578 1862.57L890.13 1867.01L894.591 1872.44L900 1868ZM961.5 1836L959.551 1829.28V1829.28L961.5 1836ZM1145.5 1856.5L1141.93 1862.52L1141.97 1862.54L1142 1862.56L1145.5 1856.5ZM1226.5 1939.5L1220.36 1942.86L1220.38 1942.89L1220.4 1942.93L1226.5 1939.5ZM1220.5 2183L1226.37 2186.82L1226.37 2186.81L1226.38 2186.8L1220.5 2183ZM1127 2270L1130.38 2276.13L1130.4 2276.12L1130.42 2276.11L1127 2270ZM1001 2302V2295C965.664 2295 932.515 2287.71 901.471 2273.16L898.5 2279.5L895.529 2285.84C928.485 2301.29 963.669 2309 1001 2309V2302ZM898.5 2279.5L901.497 2273.17C870.716 2258.59 844.167 2238.36 821.801 2212.43L816.5 2217L811.199 2221.57C834.833 2248.97 862.95 2270.41 895.503 2285.83L898.5 2279.5ZM816.5 2217L821.801 2212.43C799.496 2186.57 783.47 2156.49 773.735 2122.09L767 2124L760.265 2125.91C770.53 2162.18 787.504 2194.1 811.199 2221.57L816.5 2217ZM767 2124L768.807 2130.76L899.807 2095.76L898 2089L896.193 2082.24L765.193 2117.24L767 2124ZM898 2089L891.217 2090.73C895.81 2108.75 903.983 2124.44 915.776 2137.66L921 2133L926.224 2128.34C916.017 2116.9 908.857 2103.25 904.783 2087.27L898 2089ZM921 2133L915.846 2137.74C927.766 2150.71 941.486 2160.92 956.985 2168.32L960 2162L963.015 2155.68C949.181 2149.08 936.901 2139.96 926.154 2128.26L921 2133ZM960 2162L957.157 2168.4C973.008 2175.44 989.307 2179 1006 2179V2172V2165C991.359 2165 976.992 2161.89 962.843 2155.6L960 2162ZM1006 2172V2179C1027.85 2179 1047.92 2173.7 1066.05 2163.03L1062.5 2157L1058.95 2150.97C1043.08 2160.3 1025.48 2165 1006 2165V2172ZM1062.5 2157L1066 2163.06C1084.36 2152.47 1098.91 2138.11 1109.53 2120.05L1103.5 2116.5L1097.47 2112.95C1088.09 2128.89 1075.3 2141.53 1059 2150.94L1062.5 2157ZM1103.5 2116.5L1109.48 2120.14C1120.51 2102 1126 2081.9 1126 2060H1119H1112C1112 2079.44 1107.16 2097 1097.52 2112.86L1103.5 2116.5ZM1119 2060H1126C1126 2038.1 1120.51 2018 1109.48 1999.86L1103.5 2003.5L1097.52 2007.14C1107.16 2023 1112 2040.56 1112 2060H1119ZM1103.5 2003.5L1109.53 1999.95C1098.91 1981.89 1084.36 1967.53 1066 1956.94L1062.5 1963L1059 1969.06C1075.3 1978.47 1088.09 1991.11 1097.47 2007.05L1103.5 2003.5ZM1062.5 1963L1066.05 1956.97C1047.92 1946.3 1027.85 1941 1006 1941V1948V1955C1025.48 1955 1043.08 1959.7 1058.95 1969.03L1062.5 1963ZM1006 1948V1941C979.935 1941 958.012 1945.45 940.666 1954.84L944 1961L947.334 1967.16C961.988 1959.22 981.398 1955 1006 1955V1948ZM944 1961L940.766 1954.79C924.497 1963.27 911.84 1971.62 903.157 1979.95L908 1985L912.843 1990.05C920.16 1983.04 931.503 1975.4 947.234 1967.21L944 1961ZM908 1985L910.038 1978.3L795.038 1943.3L793 1950L790.962 1956.7L905.962 1991.7L908 1985ZM793 1950L799.988 1950.4L821.988 1567.4L815 1567L808.012 1566.6L786.012 1949.6L793 1950ZM815 1567V1574H1208V1567V1560H815V1567ZM1208 1567H1201V1694H1208H1215V1567H1208ZM1208 1694V1687H890V1694V1701H1208V1694ZM890 1694L894.788 1699.11L942.788 1654.11L938 1649L933.212 1643.89L885.212 1688.89L890 1694ZM938 1649L931.013 1648.58L916.013 1895.58L923 1896L929.987 1896.42L944.987 1649.42L938 1649ZM923 1896L928.409 1891.56L905.409 1863.56L900 1868L894.591 1872.44L917.591 1900.44L923 1896ZM900 1868L904.422 1873.43C921.67 1859.37 941.323 1849.14 963.449 1842.72L961.5 1836L959.551 1829.28C935.677 1836.2 914.33 1847.29 895.578 1862.57L900 1868ZM961.5 1836L963.449 1842.72C985.936 1836.21 1006.77 1833 1026 1833V1826V1819C1005.23 1819 983.064 1822.46 959.551 1829.28L961.5 1836ZM1026 1826V1833C1070.25 1833 1108.82 1842.91 1141.93 1862.52L1145.5 1856.5L1149.07 1850.48C1113.51 1829.42 1072.41 1819 1026 1819V1826ZM1145.5 1856.5L1142 1862.56C1175.55 1881.92 1201.64 1908.65 1220.36 1942.86L1226.5 1939.5L1232.64 1936.14C1212.7 1899.69 1184.78 1871.08 1149 1850.44L1145.5 1856.5ZM1226.5 1939.5L1220.4 1942.93C1239.4 1976.75 1249 2015.71 1249 2060H1256H1263C1263 2013.62 1252.93 1972.25 1232.6 1936.07L1226.5 1939.5ZM1256 2060H1249C1249 2104.04 1237.53 2143.71 1214.62 2179.2L1220.5 2183L1226.38 2186.8C1250.81 2148.95 1263 2106.62 1263 2060H1256ZM1220.5 2183L1214.63 2179.18C1191.6 2214.54 1161.28 2242.77 1123.58 2263.89L1127 2270L1130.42 2276.11C1170.05 2253.9 1202.07 2224.12 1226.37 2186.82L1220.5 2183ZM1127 2270L1123.62 2263.87C1086.02 2284.62 1045.18 2295 1001 2295V2302V2309C1047.48 2309 1090.65 2298.05 1130.38 2276.13L1127 2270Z" fill="#006811" mask="url(#path-7-outside-4_2057_4)"/>
<mask id="path-9-outside-5_2057_4" maskUnits="userSpaceOnUse" x="818" y="612" width="518" height="748" fill="black">
<rect fill="white" x="818" y="612" width="518" height="748"/>
<path d="M825 1353V1235L1127 967C1149.67 947 1165.67 928.167 1175 910.5C1184.33 892.833 1189 876.333 1189 861C1189 839 1184.5 819.5 1175.5 802.5C1166.5 785.167 1153.83 771.667 1137.5 762C1121.17 752 1102 747 1080 747C1057 747 1036.67 752.333 1019 763C1001.67 773.333 988.167 787.167 978.5 804.5C968.833 821.5 964.333 840 965 860H825C825 810.667 835.833 768 857.5 732C879.167 696 909.333 668.167 948 648.5C986.667 628.833 1031.67 619 1083 619C1130 619 1172 629.333 1209 650C1246.33 670.333 1275.67 698.833 1297 735.5C1318.33 772.167 1329 814.667 1329 863C1329 898.667 1324 928.333 1314 952C1304 975.333 1289.17 997 1269.5 1017C1249.83 1036.67 1225.67 1059 1197 1084L1002 1255L991 1225H1329V1353H825Z"/>
</mask>
<path d="M825 1353H818V1360H825V1353ZM825 1235L820.354 1229.76L818 1231.85V1235H825ZM1127 967L1122.37 961.751L1122.36 961.758L1122.35 961.764L1127 967ZM1175 910.5L1168.81 907.23H1168.81L1175 910.5ZM1175.5 802.5L1169.29 805.726L1169.3 805.75L1169.31 805.775L1175.5 802.5ZM1137.5 762L1133.84 767.97L1133.89 767.997L1133.93 768.024L1137.5 762ZM1019 763L1022.58 769.013L1022.6 769.003L1022.62 768.992L1019 763ZM978.5 804.5L984.585 807.96L984.599 807.935L984.614 807.909L978.5 804.5ZM965 860V867H972.237L971.996 859.767L965 860ZM825 860H818V867H825V860ZM857.5 732L863.498 735.61V735.61L857.5 732ZM948 648.5L951.173 654.739H951.173L948 648.5ZM1209 650L1205.59 656.111L1205.62 656.129L1205.65 656.147L1209 650ZM1314 952L1320.43 954.757L1320.44 954.741L1320.45 954.724L1314 952ZM1269.5 1017L1274.45 1021.95L1274.47 1021.93L1274.49 1021.91L1269.5 1017ZM1197 1084L1192.4 1078.72L1192.39 1078.73L1192.38 1078.74L1197 1084ZM1002 1255L995.428 1257.41L998.941 1266.99L1006.62 1260.26L1002 1255ZM991 1225V1218H980.978L984.428 1227.41L991 1225ZM1329 1225H1336V1218H1329V1225ZM1329 1353V1360H1336V1353H1329ZM825 1353H832V1235H825H818V1353H825ZM825 1235L829.646 1240.24L1131.65 972.236L1127 967L1122.35 961.764L820.354 1229.76L825 1235ZM1127 967L1131.63 972.249C1154.64 951.947 1171.31 932.466 1181.19 913.77L1175 910.5L1168.81 907.23C1160.02 923.867 1144.69 942.053 1122.37 961.751L1127 967ZM1175 910.5L1181.19 913.77C1190.9 895.391 1196 877.766 1196 861H1189H1182C1182 874.901 1177.77 890.276 1168.81 907.23L1175 910.5ZM1189 861H1196C1196 838.024 1191.29 817.371 1181.69 799.225L1175.5 802.5L1169.31 805.775C1177.71 821.629 1182 839.976 1182 861H1189ZM1175.5 802.5L1181.71 799.274C1172.13 780.814 1158.56 766.33 1141.07 755.976L1137.5 762L1133.93 768.024C1149.11 777.004 1160.87 789.519 1169.29 805.726L1175.5 802.5ZM1137.5 762L1141.16 756.03C1123.57 745.261 1103.09 740 1080 740V747V754C1100.91 754 1118.77 758.739 1133.84 767.97L1137.5 762ZM1080 747V740C1055.87 740 1034.26 745.608 1015.38 757.008L1019 763L1022.62 768.992C1039.07 759.058 1058.13 754 1080 754V747ZM1019 763L1015.42 756.987C997.044 767.94 982.663 782.663 972.386 801.09L978.5 804.5L984.614 807.909C993.67 791.67 1006.29 778.727 1022.58 769.013L1019 763ZM978.5 804.5L972.415 801.04C962.094 819.19 957.295 838.973 958.004 860.233L965 860L971.996 859.767C971.371 841.027 975.573 823.809 984.585 807.96L978.5 804.5ZM965 860V853H825V860V867H965V860ZM825 860H832C832 811.715 842.593 770.343 863.498 735.61L857.5 732L851.502 728.39C829.073 765.657 818 809.619 818 860H825ZM857.5 732L863.498 735.61C884.465 700.771 913.636 673.832 951.173 654.739L948 648.5L944.827 642.261C905.031 662.502 873.868 691.229 851.502 728.39L857.5 732ZM948 648.5L951.173 654.739C988.692 635.657 1032.57 626 1083 626V619V612C1030.76 612 984.641 622.01 944.827 642.261L948 648.5ZM1083 619V626C1128.94 626 1169.74 636.089 1205.59 656.111L1209 650L1212.41 643.889C1174.26 622.578 1131.06 612 1083 612V619ZM1209 650L1205.65 656.147C1241.86 675.87 1270.26 703.462 1290.95 739.02L1297 735.5L1303.05 731.98C1281.07 694.204 1250.8 664.797 1212.35 643.853L1209 650ZM1297 735.5L1290.95 739.02C1311.58 774.476 1322 815.728 1322 863H1329H1336C1336 813.605 1325.09 769.857 1303.05 731.98L1297 735.5ZM1329 863H1322C1322 898.07 1317.08 926.736 1307.55 949.276L1314 952L1320.45 954.724C1330.92 929.93 1336 899.264 1336 863H1329ZM1314 952L1307.57 949.243C1297.94 971.696 1283.63 992.648 1264.51 1012.09L1269.5 1017L1274.49 1021.91C1294.7 1001.35 1310.06 978.971 1320.43 954.757L1314 952ZM1269.5 1017L1264.55 1012.05C1245.03 1031.57 1220.99 1053.79 1192.4 1078.72L1197 1084L1201.6 1089.28C1230.35 1064.21 1254.64 1041.76 1274.45 1021.95L1269.5 1017ZM1197 1084L1192.38 1078.74L997.385 1249.74L1002 1255L1006.62 1260.26L1201.62 1089.26L1197 1084ZM1002 1255L1008.57 1252.59L997.572 1222.59L991 1225L984.428 1227.41L995.428 1257.41L1002 1255ZM991 1225V1232H1329V1225V1218H991V1225ZM1329 1225H1322V1353H1329H1336V1225H1329ZM1329 1353V1346H825V1353V1360H1329V1353Z" fill="#006811" mask="url(#path-9-outside-5_2057_4)"/>
</g>
<defs>
<clipPath id="clip0_2057_4">
<rect width="2049" height="2581" fill="white"/>
</clipPath>
</defs>
</svg>
